<mxfile host="drawio-plugin" modified="2024-03-19T17:53:42.952Z" agent="5.0 (Windows NT 10.0; Win64; x64) AppleWebKit/537.36 (KHTML, like Gecko) Chrome/111.0.0.0 Safari/537.36" etag="8IEhgxv0lbuCSQP1Mc5G" version="20.5.3" type="embed"><diagram id="23iRSUPoRavnBvh4doch" name="Page-1"><mxGraphModel dx="1490" dy="1167" grid="1" gridSize="10" guides="1" tooltips="1" connect="1" arrows="1" fold="1" page="1" pageScale="1" pageWidth="827" pageHeight="1169" math="0" shadow="0"><root><mxCell id="0"/><mxCell id="1" parent="0"/><mxCell id="33" value="Extends" style="endArrow=block;endSize=16;endFill=0;html=1;rounded=0;exitX=0.999;exitY=0.376;exitDx=0;exitDy=0;exitPerimeter=0;" parent="1" source="26" edge="1"><mxGeometry width="160" relative="1" as="geometry"><mxPoint x="840" y="750" as="sourcePoint"/><mxPoint x="1080" y="840" as="targetPoint"/></mxGeometry></mxCell><mxCell id="2" value="Actor" style="shape=umlActor;verticalLabelPosition=bottom;verticalAlign=top;html=1;outlineConnect=0;" parent="1" vertex="1"><mxGeometry x="360" y="40" width="80" height="160" as="geometry"/></mxCell><mxCell id="3" value="&lt;p style=&quot;margin:0px;margin-top:4px;text-align:center;&quot;&gt;&lt;i&gt;&amp;lt;&amp;lt;Interface&amp;gt;&amp;gt;&lt;/i&gt;&lt;br&gt;&lt;b&gt;Expression&lt;/b&gt;&lt;/p&gt;&lt;hr size=&quot;1&quot;&gt;&lt;p style=&quot;margin:0px;margin-left:4px;&quot;&gt;+ interpret(line: String): Person&lt;br&gt;&lt;/p&gt;" style="verticalAlign=top;align=left;overflow=fill;fontSize=12;fontFamily=Helvetica;html=1;" parent="1" vertex="1"><mxGeometry x="900" y="120" width="160" height="70" as="geometry"/></mxCell><mxCell id="5" value="TerminalExpression" style="swimlane;fontStyle=3;align=center;verticalAlign=middle;childLayout=stackLayout;horizontal=1;startSize=26;horizontalStack=0;resizeParent=1;resizeParentMax=0;resizeLast=0;collapsible=1;marginBottom=0;" parent="1" vertex="1"><mxGeometry x="550" y="220" width="340" height="120" as="geometry"/></mxCell><mxCell id="6" value="# context: Context&#10;" style="text;strokeColor=none;fillColor=none;align=left;verticalAlign=top;spacingLeft=4;spacingRight=4;overflow=hidden;rotatable=0;points=[[0,0.5],[1,0.5]];portConstraint=eastwest;" parent="5" vertex="1"><mxGeometry y="26" width="340" height="34" as="geometry"/></mxCell><mxCell id="9" value="&amp;nbsp;#&amp;nbsp;&lt;span style=&quot;text-align: center;&quot;&gt;TerminalExpression(context: Context):&amp;nbsp;&lt;/span&gt;&lt;span style=&quot;text-align: center;&quot;&gt;TerminalExpression&lt;br&gt;&lt;/span&gt;&amp;nbsp;#&amp;nbsp;&lt;span style=&quot;text-align: center;&quot;&gt;TerminalExpression(context: Context, person: Person)&lt;br&gt;&amp;nbsp; :&amp;nbsp;&lt;/span&gt;&lt;span style=&quot;text-align: center;&quot;&gt;TerminalExpression&lt;/span&gt;&lt;span style=&quot;text-align: center;&quot;&gt;&lt;br&gt;&lt;/span&gt;" style="rounded=0;whiteSpace=wrap;html=1;align=left;verticalAlign=top;" parent="5" vertex="1"><mxGeometry y="60" width="340" height="60" as="geometry"/></mxCell><mxCell id="10" value="NonTerminalExpression" style="swimlane;fontStyle=3;align=center;verticalAlign=middle;childLayout=stackLayout;horizontal=1;startSize=26;horizontalStack=0;resizeParent=1;resizeParentMax=0;resizeLast=0;collapsible=1;marginBottom=0;" parent="1" vertex="1"><mxGeometry x="1150" y="280" width="450" height="100" as="geometry"/></mxCell><mxCell id="11" value="# Expression: left&#10;# Expression: right" style="text;strokeColor=none;fillColor=none;align=left;verticalAlign=top;spacingLeft=4;spacingRight=4;overflow=hidden;rotatable=0;points=[[0,0.5],[1,0.5]];portConstraint=eastwest;" parent="10" vertex="1"><mxGeometry y="26" width="450" height="44" as="geometry"/></mxCell><mxCell id="12" value="&amp;nbsp;# Non&lt;span style=&quot;text-align: center;&quot;&gt;TerminalExpression(left: Expression,&lt;span style=&quot;white-space: pre;&quot;&gt; &lt;/span&gt;right: Expression):&amp;nbsp;&lt;/span&gt;&lt;span style=&quot;text-align: center;&quot;&gt;TerminalExpression&lt;br&gt;&lt;br&gt;&amp;nbsp;&lt;br&gt;&lt;/span&gt;" style="rounded=0;whiteSpace=wrap;html=1;align=left;verticalAlign=top;" parent="10" vertex="1"><mxGeometry y="70" width="450" height="30" as="geometry"/></mxCell><mxCell id="13" value="Context" style="swimlane;fontStyle=1;align=center;verticalAlign=top;childLayout=stackLayout;horizontal=1;startSize=26;horizontalStack=0;resizeParent=1;resizeParentMax=0;resizeLast=0;collapsible=1;marginBottom=0;" parent="1" vertex="1"><mxGeometry x="40" y="520" width="360" height="220" as="geometry"/></mxCell><mxCell id="37" value="&amp;nbsp;- &lt;u&gt;val: Integer&lt;/u&gt;&lt;br&gt;&amp;nbsp;- database: SortedMap&amp;lt;Integer, Person&amp;gt;&lt;br&gt;&amp;nbsp;- faker: Faker" style="rounded=0;whiteSpace=wrap;html=1;align=left;verticalAlign=top;" parent="13" vertex="1"><mxGeometry y="26" width="360" height="60" as="geometry"/></mxCell><mxCell id="36" value="&amp;nbsp;+ create(): String&lt;br&gt;&amp;nbsp;+ create(n: int): String&lt;br&gt;&amp;nbsp;+ create(person: Person): String&lt;br&gt;&amp;nbsp;+ read(n: Integer): Person&lt;br&gt;&amp;nbsp;+ read(from: Integer, to: Integer): Map&amp;lt;Integer, Person&amp;gt;&lt;br&gt;&amp;nbsp;+ delete(n: Integer): String&lt;br&gt;&amp;nbsp;+ delete(from: Integer, to: Integer): String&lt;br&gt;&amp;nbsp;+ generateNewPerson(): Person&lt;br&gt;" style="rounded=0;whiteSpace=wrap;html=1;align=left;verticalAlign=top;" parent="13" vertex="1"><mxGeometry y="86" width="360" height="134" as="geometry"/></mxCell><mxCell id="17" value="" style="endArrow=block;dashed=1;endFill=0;endSize=12;html=1;rounded=0;exitX=0.5;exitY=0;exitDx=0;exitDy=0;entryX=0;entryY=0.5;entryDx=0;entryDy=0;edgeStyle=orthogonalEdgeStyle;" parent="1" source="5" target="3" edge="1"><mxGeometry width="160" relative="1" as="geometry"><mxPoint x="600" y="510" as="sourcePoint"/><mxPoint x="760" y="510" as="targetPoint"/></mxGeometry></mxCell><mxCell id="18" value="" style="endArrow=block;dashed=1;endFill=0;endSize=12;html=1;rounded=0;exitX=0.5;exitY=0;exitDx=0;exitDy=0;entryX=1;entryY=0.5;entryDx=0;entryDy=0;edgeStyle=orthogonalEdgeStyle;" parent="1" source="10" target="3" edge="1"><mxGeometry width="160" relative="1" as="geometry"><mxPoint x="600" y="510" as="sourcePoint"/><mxPoint x="760" y="510" as="targetPoint"/></mxGeometry></mxCell><mxCell id="19" value="CreateExpression" style="swimlane;fontStyle=1;align=center;verticalAlign=middle;childLayout=stackLayout;horizontal=1;startSize=26;horizontalStack=0;resizeParent=1;resizeParentMax=0;resizeLast=0;collapsible=1;marginBottom=0;" parent="1" vertex="1"><mxGeometry x="520" y="440" width="480" height="160" as="geometry"/></mxCell><mxCell id="20" value="- num: Integer&#10;- person: Person" style="text;strokeColor=none;fillColor=none;align=left;verticalAlign=top;spacingLeft=4;spacingRight=4;overflow=hidden;rotatable=0;points=[[0,0.5],[1,0.5]];portConstraint=eastwest;" parent="19" vertex="1"><mxGeometry y="26" width="480" height="44" as="geometry"/></mxCell><mxCell id="21" value="&amp;nbsp;+&amp;nbsp;&lt;span style=&quot;text-align: center;&quot;&gt;CreateExpression(context: Context):&amp;nbsp;&lt;/span&gt;&lt;span style=&quot;text-align: center;&quot;&gt;CreateExpression&lt;br&gt;&lt;/span&gt;&amp;nbsp;+&amp;nbsp;&lt;span style=&quot;text-align: center;&quot;&gt;CreateExpression(context: Context, n nteger):&amp;nbsp;&lt;/span&gt;&lt;span style=&quot;text-align: center;&quot;&gt;CreateExpression&lt;/span&gt;&lt;span style=&quot;text-align: center;&quot;&gt;&lt;br&gt;&lt;/span&gt;&amp;nbsp;+&amp;nbsp;&lt;span style=&quot;text-align: center;&quot;&gt;CreateExpression(context: Context, person: Person):&amp;nbsp;&lt;/span&gt;&lt;span style=&quot;text-align: center;&quot;&gt;CreateExpression&lt;br&gt;&lt;/span&gt;&lt;span style=&quot;text-align: center;&quot;&gt;&lt;br&gt;&amp;nbsp;+ interpret(): String&lt;br&gt;&lt;/span&gt;" style="rounded=0;whiteSpace=wrap;html=1;align=left;verticalAlign=top;" parent="19" vertex="1"><mxGeometry y="70" width="480" height="90" as="geometry"/></mxCell><mxCell id="22" value="DeleteExpression" style="swimlane;fontStyle=1;align=center;verticalAlign=middle;childLayout=stackLayout;horizontal=1;startSize=26;horizontalStack=0;resizeParent=1;resizeParentMax=0;resizeLast=0;collapsible=1;marginBottom=0;" parent="1" vertex="1"><mxGeometry x="520" y="630" width="480" height="140" as="geometry"/></mxCell><mxCell id="23" value="- num: Integer" style="text;strokeColor=none;fillColor=none;align=left;verticalAlign=top;spacingLeft=4;spacingRight=4;overflow=hidden;rotatable=0;points=[[0,0.5],[1,0.5]];portConstraint=eastwest;" parent="22" vertex="1"><mxGeometry y="26" width="480" height="34" as="geometry"/></mxCell><mxCell id="24" value="&amp;nbsp;+&amp;nbsp;&lt;span style=&quot;text-align: center;&quot;&gt;DeleteExpression&lt;/span&gt;&lt;span style=&quot;text-align: center;&quot;&gt;(context: Context, n nteger):&amp;nbsp;&lt;/span&gt;&lt;span style=&quot;text-align: center;&quot;&gt;DeleteExpression&lt;/span&gt;&lt;span style=&quot;text-align: center;&quot;&gt;&lt;br&gt;&lt;/span&gt;&amp;nbsp;+&amp;nbsp;&lt;span style=&quot;text-align: center;&quot;&gt;DeleteExpression&lt;/span&gt;&lt;span style=&quot;text-align: center;&quot;&gt;(context: Context,&amp;nbsp;from: Integer, to: Integer):&amp;nbsp;&lt;/span&gt;&lt;span style=&quot;text-align: center;&quot;&gt;DeleteExpression&lt;/span&gt;&lt;span style=&quot;text-align: center;&quot;&gt;&lt;br&gt;&lt;/span&gt;&lt;span style=&quot;text-align: center;&quot;&gt;&lt;br&gt;&amp;nbsp;+ interpret(): String&lt;br&gt;&lt;/span&gt;" style="rounded=0;whiteSpace=wrap;html=1;align=left;verticalAlign=top;" parent="22" vertex="1"><mxGeometry y="60" width="480" height="80" as="geometry"/></mxCell><mxCell id="25" value="DeleteExpression" style="swimlane;fontStyle=1;align=center;verticalAlign=middle;childLayout=stackLayout;horizontal=1;startSize=26;horizontalStack=0;resizeParent=1;resizeParentMax=0;resizeLast=0;collapsible=1;marginBottom=0;" parent="1" vertex="1"><mxGeometry x="520" y="800" width="480" height="140" as="geometry"/></mxCell><mxCell id="26" value="- num: Integer" style="text;strokeColor=none;fillColor=none;align=left;verticalAlign=top;spacingLeft=4;spacingRight=4;overflow=hidden;rotatable=0;points=[[0,0.5],[1,0.5]];portConstraint=eastwest;" parent="25" vertex="1"><mxGeometry y="26" width="480" height="34" as="geometry"/></mxCell><mxCell id="27" value="&amp;nbsp;+&amp;nbsp;&lt;span style=&quot;text-align: center;&quot;&gt;DeleteExpression&lt;/span&gt;&lt;span style=&quot;text-align: center;&quot;&gt;(context: Context, n nteger):&amp;nbsp;&lt;/span&gt;&lt;span style=&quot;text-align: center;&quot;&gt;DeleteExpression&lt;/span&gt;&lt;span style=&quot;text-align: center;&quot;&gt;&lt;br&gt;&lt;/span&gt;&amp;nbsp;+&amp;nbsp;&lt;span style=&quot;text-align: center;&quot;&gt;DeleteExpression&lt;/span&gt;&lt;span style=&quot;text-align: center;&quot;&gt;(context: Context,&amp;nbsp;from: Integer, to: Integer):&amp;nbsp;&lt;/span&gt;&lt;span style=&quot;text-align: center;&quot;&gt;DeleteExpression&lt;/span&gt;&lt;span style=&quot;text-align: center;&quot;&gt;&lt;br&gt;&lt;/span&gt;&lt;span style=&quot;text-align: center;&quot;&gt;&lt;br&gt;&amp;nbsp;+ interpret(): String&lt;br&gt;&lt;/span&gt;" style="rounded=0;whiteSpace=wrap;html=1;align=left;verticalAlign=top;" parent="25" vertex="1"><mxGeometry y="60" width="480" height="80" as="geometry"/></mxCell><mxCell id="28" value="AndExpression" style="swimlane;fontStyle=1;align=center;verticalAlign=middle;childLayout=stackLayout;horizontal=1;startSize=26;horizontalStack=0;resizeParent=1;resizeParentMax=0;resizeLast=0;collapsible=1;marginBottom=0;" parent="1" vertex="1"><mxGeometry x="1150" y="480" width="450" height="90" as="geometry"/></mxCell><mxCell id="30" value="&amp;nbsp;+&amp;nbsp;&lt;span style=&quot;text-align: center;&quot;&gt;AndExpression(left: Expression, right:Expression):&amp;nbsp;&lt;/span&gt;&lt;span style=&quot;text-align: center;&quot;&gt;AndExpression&lt;br&gt;&lt;br&gt;&lt;/span&gt;&lt;span style=&quot;text-align: center;&quot;&gt;+ interpret(): String&lt;/span&gt;&lt;span style=&quot;text-align: center;&quot;&gt;&lt;br&gt;&lt;/span&gt;" style="rounded=0;whiteSpace=wrap;html=1;align=left;verticalAlign=top;" parent="28" vertex="1"><mxGeometry y="26" width="450" height="64" as="geometry"/></mxCell><mxCell id="31" value="Extends" style="endArrow=block;endSize=16;endFill=0;html=1;rounded=0;exitX=0.5;exitY=0;exitDx=0;exitDy=0;entryX=0.5;entryY=1;entryDx=0;entryDy=0;" parent="1" source="28" target="12" edge="1"><mxGeometry width="160" relative="1" as="geometry"><mxPoint x="1260" y="320" as="sourcePoint"/><mxPoint x="1420" y="320" as="targetPoint"/></mxGeometry></mxCell><mxCell id="32" value="Extends" style="endArrow=block;endSize=16;endFill=0;html=1;rounded=0;entryX=0.5;entryY=1;entryDx=0;entryDy=0;edgeStyle=orthogonalEdgeStyle;" parent="1" target="5" edge="1"><mxGeometry width="160" relative="1" as="geometry"><mxPoint x="1080" y="840" as="sourcePoint"/><mxPoint x="990" y="460" as="targetPoint"/><Array as="points"><mxPoint x="1080" y="400"/><mxPoint x="720" y="400"/></Array></mxGeometry></mxCell><mxCell id="34" value="Extends" style="endArrow=block;endSize=16;endFill=0;html=1;rounded=0;exitX=1;exitY=0.5;exitDx=0;exitDy=0;" parent="1" source="23" edge="1"><mxGeometry width="160" relative="1" as="geometry"><mxPoint x="1009.52" y="892.5440000000001" as="sourcePoint"/><mxPoint x="1080" y="673" as="targetPoint"/></mxGeometry></mxCell><mxCell id="35" value="Extends" style="endArrow=block;endSize=16;endFill=0;html=1;rounded=0;exitX=1;exitY=0.5;exitDx=0;exitDy=0;" parent="1" source="20" edge="1"><mxGeometry width="160" relative="1" as="geometry"><mxPoint x="820" y="600" as="sourcePoint"/><mxPoint x="1080" y="490" as="targetPoint"/></mxGeometry></mxCell><mxCell id="49" value="Use" style="endArrow=open;endSize=12;dashed=1;html=1;rounded=0;exitX=1;exitY=0.3333333333333333;exitDx=0;exitDy=0;exitPerimeter=0;entryX=0.5;entryY=0;entryDx=0;entryDy=0;edgeStyle=orthogonalEdgeStyle;" parent="1" source="2" target="3" edge="1"><mxGeometry width="160" relative="1" as="geometry"><mxPoint x="490" y="220" as="sourcePoint"/><mxPoint x="1020" y="90" as="targetPoint"/></mxGeometry></mxCell><mxCell id="50" value="Use" style="endArrow=open;endSize=12;dashed=1;html=1;rounded=0;exitX=0;exitY=0.3333333333333333;exitDx=0;exitDy=0;exitPerimeter=0;entryX=0.5;entryY=0;entryDx=0;entryDy=0;edgeStyle=orthogonalEdgeStyle;" parent="1" source="2" target="13" edge="1"><mxGeometry width="160" relative="1" as="geometry"><mxPoint x="310" y="350" as="sourcePoint"/><mxPoint x="470" y="350" as="targetPoint"/><Array as="points"><mxPoint x="220" y="93"/></Array></mxGeometry></mxCell><mxCell id="51" value="Person" style="swimlane;fontStyle=1;align=center;verticalAlign=top;childLayout=stackLayout;horizontal=1;startSize=26;horizontalStack=0;resizeParent=1;resizeParentMax=0;resizeLast=0;collapsible=1;marginBottom=0;" parent="1" vertex="1"><mxGeometry x="1241" y="760" width="210" height="330" as="geometry"/></mxCell><mxCell id="52" value="- firstName: String&#10;- lastName: String&#10;- age: Integer&#10;- city: String" style="text;strokeColor=none;fillColor=none;align=left;verticalAlign=top;spacingLeft=4;spacingRight=4;overflow=hidden;rotatable=0;points=[[0,0.5],[1,0.5]];portConstraint=eastwest;" parent="51" vertex="1"><mxGeometry y="26" width="210" height="74" as="geometry"/></mxCell><mxCell id="53" value="" style="line;strokeWidth=1;fillColor=none;align=left;verticalAlign=middle;spacingTop=-1;spacingLeft=3;spacingRight=3;rotatable=0;labelPosition=right;points=[];portConstraint=eastwest;strokeColor=inherit;" parent="51" vertex="1"><mxGeometry y="100" width="210" height="8" as="geometry"/></mxCell><mxCell id="54" value="+ Person(): Person&#10;+ Person(first: String, first: String,&#10;    age: Integer, city: String) : Person&#10;&#10;+ getFirstname(): String&#10;+ getLastName(): String&#10;+ getAge(): Integer&#10;+ getCity(): String&#10;&#10;+ setFirstname(first: String)&#10;+ setLastName(last: String)&#10;+ setAge(age: Integer)&#10;+ setCity(city: String)&#10;" style="text;strokeColor=none;fillColor=none;align=left;verticalAlign=top;spacingLeft=4;spacingRight=4;overflow=hidden;rotatable=0;points=[[0,0.5],[1,0.5]];portConstraint=eastwest;" parent="51" vertex="1"><mxGeometry y="108" width="210" height="222" as="geometry"/></mxCell><mxCell id="55" value="Use" style="endArrow=open;endSize=12;dashed=1;html=1;rounded=0;exitX=0.5;exitY=1;exitDx=0;exitDy=0;edgeStyle=orthogonalEdgeStyle;entryX=-0.003;entryY=0.777;entryDx=0;entryDy=0;entryPerimeter=0;" parent="1" source="13" target="54" edge="1"><mxGeometry width="160" relative="1" as="geometry"><mxPoint x="830" y="870" as="sourcePoint"/><mxPoint x="1220" y="1030" as="targetPoint"/><Array as="points"><mxPoint x="220" y="1040"/></Array></mxGeometry></mxCell><mxCell id="61" value="Use" style="endArrow=open;endSize=12;dashed=1;html=1;rounded=0;exitX=0;exitY=0.5;exitDx=0;exitDy=0;entryX=0.75;entryY=1;entryDx=0;entryDy=0;edgeStyle=orthogonalEdgeStyle;" parent="1" source="11" target="3" edge="1"><mxGeometry width="160" relative="1" as="geometry"><mxPoint x="1030" y="300" as="sourcePoint"/><mxPoint x="1190" y="300" as="targetPoint"/></mxGeometry></mxCell><mxCell id="66" value="1" style="endArrow=open;html=1;endSize=12;startArrow=diamondThin;startSize=14;startFill=0;edgeStyle=orthogonalEdgeStyle;align=left;verticalAlign=bottom;rounded=0;entryX=0.75;entryY=0;entryDx=0;entryDy=0;exitX=0;exitY=0.706;exitDx=0;exitDy=0;exitPerimeter=0;" parent="1" source="6" target="13" edge="1"><mxGeometry x="-1" y="3" relative="1" as="geometry"><mxPoint x="520" y="270" as="sourcePoint"/><mxPoint x="860" y="560" as="targetPoint"/><Array as="points"><mxPoint x="400" y="270"/><mxPoint x="400" y="480"/><mxPoint x="310" y="480"/></Array></mxGeometry></mxCell><mxCell id="67" value="1" style="endArrow=open;html=1;endSize=12;startArrow=diamondThin;startSize=14;startFill=0;edgeStyle=orthogonalEdgeStyle;align=left;verticalAlign=bottom;rounded=0;exitX=0;exitY=0.5;exitDx=0;exitDy=0;" parent="1" edge="1" source="20"><mxGeometry x="-1" y="190" relative="1" as="geometry"><mxPoint x="1050" y="1010" as="sourcePoint"/><mxPoint x="1240" y="1000" as="targetPoint"/><Array as="points"><mxPoint x="480" y="488"/><mxPoint x="480" y="1000"/></Array><mxPoint y="10" as="offset"/></mxGeometry></mxCell></root></mxGraphModel></diagram></mxfile>